<?xml version="1.0" standalone="no"?><!DOCTYPE svg PUBLIC "-//W3C//DTD SVG 1.1//EN" "http://www.w3.org/Graphics/SVG/1.1/DTD/svg11.dtd"><svg t="1590910677731" class="icon" viewBox="0 0 1024 1024" version="1.1" xmlns="http://www.w3.org/2000/svg" p-id="663" xmlns:xlink="http://www.w3.org/1999/xlink" width="200" height="200"><defs><style type="text/css"></style></defs><path d="M138.410667 487.04l4.949333 4.48L512 860.16l368.64-368.64a65.152 65.152 0 0 1 87.765333-4.010667l4.352 4.010667c23.893333 23.893333 25.386667 61.610667 4.48 87.210667l-4.48 4.949333-414.72 414.72c-23.808 23.850667-61.568 25.344-87.168 4.437333l-4.949333-4.48-414.72-414.72a65.152 65.152 0 0 1 87.210667-96.597333zM968.405333 18.176l4.352 4.010667c23.893333 23.893333 25.386667 61.610667 4.48 87.210666l-4.48 4.949334-414.72 414.72c-23.808 23.850667-61.568 25.344-87.168 4.437333l-4.949333-4.48L51.2 114.346667A65.152 65.152 0 0 1 138.453333 17.749333L143.36 22.186667 512 390.826667 880.64 22.186667a65.152 65.152 0 0 1 87.765333-4.010667z" p-id="664"></path></svg>